<svg width="236" height="160" viewBox="0 0 236 160" fill="none" xmlns="http://www.w3.org/2000/svg">
<g clip-path="url(#clip0_23_63)">
<path d="M122.908 89.4971H106.711V90.0043H109.237V94.8212H109.76V90.0043H119.598V94.8212H120.121V90.0043H122.908V89.4971Z" fill="#86634A"/>
<path d="M128.916 77.0743H124.737V81.1306H126.674V94.7988H127.197V81.1306H128.916V77.0743Z" fill="#473E37"/>
<path d="M122.94 87.9801H106.743V88.4871H122.94V87.9801Z" fill="#86634A"/>
<path d="M122.94 86.7125H106.743V87.2195H122.94V86.7125Z" fill="#86634A"/>
<path d="M122.94 85.4448H106.743V85.9519H122.94V85.4448Z" fill="#86634A"/>
<path d="M164.445 96.2826H163.923C163.923 72.2378 143.766 52.6759 118.989 52.6759C94.213 52.6759 74.0559 72.2378 74.0559 96.2826H73.5334C73.5334 71.9582 93.9249 52.1689 118.989 52.1689C144.054 52.1689 164.445 71.9582 164.445 96.2826Z" fill="#E7D57B"/>
<path d="M43.4261 82.9034C67.0158 82.9034 86.1391 64.3448 86.1391 41.4517C86.1391 18.5585 67.0158 0 43.4261 0C19.8364 0 0.713135 18.5585 0.713135 41.4517C0.713135 64.3448 19.8364 82.9034 43.4261 82.9034Z" fill="#5FAF39"/>
<path opacity="0.2" d="M75.1987 13.7652C79.1828 22.8097 79.7233 32.9343 76.7235 42.3299C73.7237 51.7255 67.3792 59.7798 58.8235 65.0535C50.2679 70.3273 40.0587 72.4768 30.0203 71.1181C19.9819 69.7593 10.7684 64.9808 4.02625 57.6364C6.46007 63.1622 10.1027 68.1084 14.7018 72.1324C19.301 76.1563 24.7466 79.1617 30.6614 80.9405C36.5762 82.7192 42.8187 83.2287 48.9566 82.4336C55.0944 81.6386 60.9808 79.558 66.2078 76.336C71.4348 73.114 75.8775 68.8277 79.2281 63.774C82.5788 58.7203 84.7571 53.0201 85.6124 47.0683C86.4676 41.1164 85.9792 35.0553 84.1811 29.3048C82.3829 23.5544 79.318 18.252 75.1987 13.7652Z" fill="black"/>
<path d="M43.5434 41.4517H43.6607L45.7729 158.974H41.314L43.5434 41.4517Z" fill="#86634A"/>
<path d="M51.3208 105.465L50.3368 103.652L43.2762 107.259L44.2602 109.073L51.3208 105.465Z" fill="#86634A"/>
<path d="M200.65 92.5876C219.742 92.5876 235.22 77.5669 235.22 59.0378C235.22 40.5088 219.742 25.488 200.65 25.488C181.557 25.488 166.079 40.5088 166.079 59.0378C166.079 77.5669 181.557 92.5876 200.65 92.5876Z" fill="#5FAF39"/>
<path opacity="0.2" d="M226.365 36.6292C229.59 43.9495 230.028 52.1441 227.6 59.7486C225.172 67.3532 220.037 73.8721 213.112 78.1405C206.187 82.4089 197.924 84.1487 189.799 83.049C181.675 81.9493 174.217 78.0817 168.76 72.1373C170.73 76.6097 173.679 80.6131 177.401 83.8699C181.123 87.1268 185.531 89.5593 190.318 90.9989C195.105 92.4386 200.158 92.8509 205.126 92.2074C210.094 91.5639 214.858 89.88 219.088 87.2722C223.319 84.6644 226.915 81.1952 229.627 77.1049C232.339 73.0146 234.102 68.401 234.794 63.5837C235.486 58.7665 235.091 53.8608 233.635 49.2065C232.18 44.5523 229.699 40.2607 226.365 36.6292Z" fill="black"/>
<path d="M200.745 59.0378H200.84L202.549 154.157H198.94L200.745 59.0378Z" fill="#86634A"/>
<path d="M207.039 110.849L206.243 109.381L200.528 112.3L201.325 113.768L207.039 110.849Z" fill="#86634A"/>
<path d="M98.6349 87.928C101.641 87.928 104.077 85.5634 104.077 82.6465C104.077 79.7296 101.641 77.365 98.6349 77.365C95.6292 77.365 93.1926 79.7296 93.1926 82.6465C93.1926 85.5634 95.6292 87.928 98.6349 87.928Z" fill="#5FAF39"/>
<path opacity="0.2" d="M102.683 79.1188C103.191 80.2712 103.26 81.5613 102.877 82.7584C102.495 83.9555 101.687 84.9817 100.597 85.6537C99.5066 86.3256 98.2058 86.5995 96.9267 86.4264C95.6477 86.2533 94.4738 85.6444 93.6147 84.7086C93.9248 85.4127 94.389 86.0429 94.975 86.5556C95.5609 87.0683 96.2548 87.4513 97.0084 87.6779C97.762 87.9045 98.5575 87.9695 99.3395 87.8682C100.122 87.7668 100.872 87.5018 101.538 87.0912C102.204 86.6807 102.77 86.1346 103.197 85.4907C103.623 84.8467 103.901 84.1205 104.01 83.3621C104.119 82.6038 104.057 81.8315 103.828 81.0988C103.598 80.3661 103.208 79.6905 102.683 79.1188Z" fill="black"/>
<path d="M98.6499 82.6466H98.6647L98.9339 97.6204H98.3658L98.6499 82.6466Z" fill="#86634A"/>
<path d="M99.6408 90.8027L99.5154 90.5716L98.6158 91.0313L98.7411 91.2624L99.6408 90.8027Z" fill="#86634A"/>
<path d="M148.924 79.1451C156.619 79.1451 162.856 73.0915 162.856 65.624C162.856 58.1564 156.619 52.1028 148.924 52.1028C141.229 52.1028 134.991 58.1564 134.991 65.624C134.991 73.0915 141.229 79.1451 148.924 79.1451Z" fill="#5FAF39"/>
<path opacity="0.2" d="M159.288 56.5929C160.587 59.5431 160.763 62.8457 159.785 65.9104C158.806 68.9752 156.737 71.6024 153.946 73.3227C151.155 75.0429 147.825 75.7441 144.551 75.3009C141.276 74.8577 138.271 73.299 136.072 70.9033C136.866 72.7058 138.054 74.3192 139.554 75.6317C141.054 76.9443 142.831 77.9247 144.76 78.5049C146.689 79.0851 148.726 79.2513 150.728 78.9919C152.73 78.7326 154.65 78.0539 156.355 77.0029C158.06 75.952 159.509 74.5538 160.602 72.9053C161.695 71.2569 162.405 69.3975 162.684 67.4561C162.963 65.5146 162.804 63.5375 162.218 61.6618C161.631 59.786 160.631 58.0565 159.288 56.5929Z" fill="black"/>
<path d="M148.962 65.624H149L149.689 103.959H148.235L148.962 65.624Z" fill="#86634A"/>
<path d="M151.499 86.5046L151.178 85.913L148.875 87.0897L149.196 87.6814L151.499 86.5046Z" fill="#86634A"/>
<path d="M53.0013 153.124C53.0013 153.124 53.1817 149.455 56.88 149.882L53.0013 153.124Z" fill="#86634A"/>
<path d="M51.9564 149.633C52.9787 149.633 53.8074 148.828 53.8074 147.836C53.8074 146.844 52.9787 146.04 51.9564 146.04C50.9342 146.04 50.1055 146.844 50.1055 147.836C50.1055 148.828 50.9342 149.633 51.9564 149.633Z" fill="#5FAF39"/>
<path d="M52.1776 150.861H51.6552V154.411H52.1776V150.861Z" fill="#86634A"/>
<path d="M66.0635 144.757C66.0635 144.757 66.2439 141.089 69.9421 141.515L66.0635 144.757Z" fill="#86634A"/>
<path d="M65.0184 141.266C66.0407 141.266 66.8694 140.462 66.8694 139.47C66.8694 138.478 66.0407 137.674 65.0184 137.674C63.9962 137.674 63.1675 138.478 63.1675 139.47C63.1675 140.462 63.9962 141.266 65.0184 141.266Z" fill="#5FAF39"/>
<path d="M65.2398 142.495H64.7173V146.044H65.2398V142.495Z" fill="#86634A"/>
<path d="M105.438 116.373C105.438 116.373 105.581 113.46 108.518 113.798L105.438 116.373Z" fill="#86634A"/>
<path d="M104.608 113.601C105.42 113.601 106.078 112.962 106.078 112.174C106.078 111.386 105.42 110.747 104.608 110.747C103.796 110.747 103.137 111.386 103.137 112.174C103.137 112.962 103.796 113.601 104.608 113.601Z" fill="#5FAF39"/>
<path d="M104.783 114.576H104.368V117.396H104.783V114.576Z" fill="#86634A"/>
<path d="M162.911 107.246C162.911 107.246 163.054 104.333 165.991 104.671L162.911 107.246Z" fill="#86634A"/>
<path d="M162.081 104.474C162.893 104.474 163.551 103.835 163.551 103.047C163.551 102.259 162.893 101.62 162.081 101.62C161.269 101.62 160.611 102.259 160.611 103.047C160.611 103.835 161.269 104.474 162.081 104.474Z" fill="#5FAF39"/>
<path d="M162.256 105.45H161.841V108.269H162.256V105.45Z" fill="#86634A"/>
<path d="M108.05 123.979C108.05 123.979 108.193 121.066 111.13 121.404L108.05 123.979Z" fill="#86634A"/>
<path d="M107.22 121.207C108.032 121.207 108.69 120.568 108.69 119.78C108.69 118.992 108.032 118.353 107.22 118.353C106.408 118.353 105.75 118.992 105.75 119.78C105.75 120.568 106.408 121.207 107.22 121.207Z" fill="#5FAF39"/>
<path d="M107.396 122.182H106.981V125.001H107.396V122.182Z" fill="#86634A"/>
<path d="M101.78 129.557C101.78 129.557 101.923 126.643 104.861 126.982L101.78 129.557Z" fill="#86634A"/>
<path d="M100.95 126.784C101.762 126.784 102.42 126.145 102.42 125.357C102.42 124.569 101.762 123.931 100.95 123.931C100.138 123.931 99.48 124.569 99.48 125.357C99.48 126.145 100.138 126.784 100.95 126.784Z" fill="#5FAF39"/>
<path d="M101.126 127.76H100.711V130.579H101.126V127.76Z" fill="#86634A"/>
<path d="M171.793 112.063C171.793 112.063 171.936 109.15 174.873 109.488L171.793 112.063Z" fill="#86634A"/>
<path d="M170.963 109.291C171.775 109.291 172.433 108.652 172.433 107.864C172.433 107.076 171.775 106.437 170.963 106.437C170.151 106.437 169.493 107.076 169.493 107.864C169.493 108.652 170.151 109.291 170.963 109.291Z" fill="#5FAF39"/>
<path d="M171.139 110.267H170.724V113.086H171.139V110.267Z" fill="#86634A"/>
<path d="M87.1506 118.402C87.1506 118.402 87.2939 115.488 90.2313 115.827L87.1506 118.402Z" fill="#86634A"/>
<path d="M86.3207 115.629C87.1326 115.629 87.7908 114.99 87.7908 114.202C87.7908 113.414 87.1326 112.776 86.3207 112.776C85.5088 112.776 84.8506 113.414 84.8506 114.202C84.8506 114.99 85.5088 115.629 86.3207 115.629Z" fill="#5FAF39"/>
<path d="M86.4964 116.605H86.0814V119.424H86.4964V116.605Z" fill="#86634A"/>
<path d="M155.073 103.951C155.073 103.951 155.217 101.037 158.154 101.376L155.073 103.951Z" fill="#86634A"/>
<path d="M154.243 101.178C155.055 101.178 155.713 100.539 155.713 99.7512C155.713 98.9632 155.055 98.3245 154.243 98.3245C153.431 98.3245 152.773 98.9632 152.773 99.7512C152.773 100.539 153.431 101.178 154.243 101.178Z" fill="#5FAF39"/>
<path d="M154.419 102.154H154.004V104.973H154.419V102.154Z" fill="#86634A"/>
<path d="M30.2733 153.884C30.2733 153.884 30.4537 150.216 34.152 150.642L30.2733 153.884Z" fill="#86634A"/>
<path d="M29.2284 150.393C30.2507 150.393 31.0794 149.589 31.0794 148.597C31.0794 147.605 30.2507 146.801 29.2284 146.801C28.2061 146.801 27.3774 147.605 27.3774 148.597C27.3774 149.589 28.2061 150.393 29.2284 150.393Z" fill="#5FAF39"/>
<path d="M29.4497 151.622H28.9272V155.171H29.4497V151.622Z" fill="#86634A"/>
<path d="M210.269 152.87C210.269 152.87 210.449 149.202 214.147 149.628L210.269 152.87Z" fill="#86634A"/>
<path d="M209.224 149.379C210.246 149.379 211.075 148.575 211.075 147.583C211.075 146.591 210.246 145.786 209.224 145.786C208.202 145.786 207.373 146.591 207.373 147.583C207.373 148.575 208.202 149.379 209.224 149.379Z" fill="#5FAF39"/>
<path d="M209.445 150.608H208.923V154.157H209.445V150.608Z" fill="#86634A"/>
<path d="M195.117 144.25C195.117 144.25 195.297 140.582 198.995 141.008L195.117 144.25Z" fill="#86634A"/>
<path d="M194.072 140.759C195.094 140.759 195.923 139.955 195.923 138.963C195.923 137.971 195.094 137.167 194.072 137.167C193.049 137.167 192.221 137.971 192.221 138.963C192.221 139.955 193.049 140.759 194.072 140.759Z" fill="#5FAF39"/>
<path d="M194.293 141.988H193.771V145.537H194.293V141.988Z" fill="#86634A"/>
<path d="M193.027 157.18C193.027 157.18 193.207 153.512 196.906 153.938L193.027 157.18Z" fill="#86634A"/>
<path d="M191.982 153.689C193.004 153.689 193.833 152.885 193.833 151.893C193.833 150.901 193.004 150.096 191.982 150.096C190.96 150.096 190.131 150.901 190.131 151.893C190.131 152.885 190.96 153.689 191.982 153.689Z" fill="#5FAF39"/>
<path d="M192.203 154.918H191.681V158.467H192.203V154.918Z" fill="#86634A"/>
<path d="M33.2806 159.918C33.2806 159.918 115.572 138.875 114.788 117.325C113.351 111.367 103.424 109.846 103.424 109.846C103.424 109.846 79.9122 106.804 92.713 99.4517C105.514 92.0994 140.52 93.8741 140.52 93.8741C140.52 93.8741 104.469 99.4517 120.405 102.494C133.205 103.255 149.664 106.55 149.664 106.55C149.664 106.55 183.103 113.396 187.805 130.128C192.507 146.861 188.589 159.791 188.589 159.791L33.2806 159.918Z" fill="#919BA5"/>
<path d="M122.91 160L122.602 159.582C123.037 159.28 123.466 158.98 123.888 158.681L124.2 159.096C123.776 159.396 123.346 159.697 122.91 160Z" fill="#F1F1F1"/>
<path d="M126.751 157.258L126.431 156.848C127.287 156.22 128.129 155.587 128.936 154.969L129.264 155.372C128.455 155.992 127.609 156.627 126.751 157.258ZM131.734 153.43L131.396 153.035C132.224 152.367 133.033 151.696 133.802 151.041L134.152 151.427C133.379 152.085 132.566 152.76 131.734 153.43ZM136.507 149.353L136.145 148.979C136.935 148.259 137.697 147.539 138.409 146.838L138.786 147.199C138.069 147.905 137.302 148.63 136.507 149.353ZM140.97 144.95L140.576 144.607C141.302 143.822 141.988 143.036 142.617 142.271L143.031 142.591C142.396 143.364 141.703 144.158 140.97 144.95ZM144.928 140.103L144.491 139.813C145.106 138.938 145.662 138.064 146.141 137.216L146.606 137.464C146.118 138.326 145.553 139.214 144.928 140.103ZM147.973 134.653L147.48 134.465C147.864 133.525 148.164 132.555 148.379 131.565L148.897 131.668C148.677 132.687 148.368 133.685 147.973 134.653ZM148.679 128.565C148.664 127.567 148.521 126.574 148.254 125.609L148.765 125.475C149.043 126.481 149.192 127.516 149.209 128.557L148.679 128.565ZM147.095 122.836C146.593 121.955 146.002 121.123 145.333 120.353L145.739 120.023C146.431 120.819 147.04 121.678 147.56 122.589L147.095 122.836ZM143.146 118.185C142.359 117.512 141.535 116.882 140.677 116.297L140.983 115.878C141.856 116.473 142.696 117.115 143.497 117.8L143.146 118.185ZM138.024 114.643C137.158 114.149 136.224 113.656 135.248 113.178L135.486 112.72C136.472 113.203 137.416 113.701 138.292 114.2L138.024 114.643ZM132.386 111.865C131.465 111.468 130.483 111.068 129.469 110.676L129.665 110.199C130.685 110.593 131.673 110.996 132.601 111.396L132.386 111.865ZM126.5 109.584C125.557 109.252 124.548 108.912 123.503 108.572L123.671 108.084C124.72 108.426 125.733 108.768 126.68 109.101L126.5 109.584ZM120.483 107.62C119.56 107.337 118.567 107.04 117.446 106.711L117.6 106.219C118.722 106.549 119.717 106.847 120.642 107.13L120.483 107.62ZM114.4 105.823C113.329 105.512 112.307 105.215 111.351 104.93L111.507 104.438C112.462 104.724 113.482 105.021 114.551 105.331L114.4 105.823ZM108.315 103.977C107.297 103.65 106.301 103.261 105.333 102.812L105.572 102.353C106.518 102.792 107.492 103.172 108.489 103.491L108.315 103.977ZM104.317 100.609L103.94 100.248C104.422 99.7724 105.377 99.3068 106.858 98.8246L107.027 99.3118C105.646 99.7611 104.734 100.198 104.317 100.609ZM110.056 98.4749L109.928 97.9761C110.843 97.7548 111.886 97.5233 113.028 97.2879L113.138 97.7907C112.002 98.0245 110.965 98.2548 110.056 98.4749ZM116.242 97.1856L116.143 96.6808C117.118 96.4999 118.169 96.3125 119.266 96.1238L119.358 96.6296C118.263 96.8181 117.215 97.0049 116.242 97.1856ZM122.481 96.1078L122.394 95.601C123.391 95.4387 124.435 95.2727 125.526 95.103L125.609 95.6103C124.52 95.7799 123.477 95.9457 122.481 96.1078Z" fill="#F1F1F1"/>
<path d="M128.802 95.1226L128.721 94.6148C129.235 94.5375 129.759 94.4595 130.292 94.3807L130.372 94.8885C129.839 94.9673 129.316 95.0453 128.802 95.1226Z" fill="#67C1D6"/>
<path d="M140.519 42.9332L142.924 41.0665C141.056 40.8665 140.288 41.8553 139.974 42.638C138.514 42.0498 136.926 42.8207 136.926 42.8207L141.737 44.5159C141.495 43.8867 141.072 43.3377 140.519 42.9332Z" fill="#473E37"/>
<path d="M95.8469 57.3843L98.2518 55.5176C96.3836 55.3176 95.6159 56.3064 95.3018 57.0891C93.8422 56.5009 92.2533 57.2717 92.2533 57.2717L97.0651 58.967C96.8223 58.3377 96.3998 57.7887 95.8469 57.3843Z" fill="#473E37"/>
<path d="M107.603 27.4681L110.008 25.6014C108.139 25.4014 107.372 26.3902 107.058 27.1729C105.598 26.5847 104.009 27.3555 104.009 27.3555L108.821 29.0508C108.578 28.4215 108.156 27.8725 107.603 27.4681Z" fill="#473E37"/>
<path d="M133.746 110.582C133.746 110.582 131.663 110.582 131.432 111.817C131.2 113.052 130.853 126.529 131.085 128.214C131.316 129.898 131.316 129.561 131.316 129.561C131.316 129.561 130.855 132.762 131.895 132.903C132.936 133.043 132.936 129.224 132.936 129.224L133.746 115.523V110.582Z" fill="#DFB69F"/>
<path d="M142.773 110.582C142.773 110.582 144.856 110.582 145.087 111.817C145.319 113.052 145.666 126.529 145.434 128.214C145.203 129.898 145.203 129.561 145.203 129.561C145.203 129.561 145.664 132.762 144.624 132.903C143.583 133.043 143.583 129.224 143.583 129.224L142.773 115.523V110.582Z" fill="#DFB69F"/>
<path d="M133.399 157.525H132.473C132.2 157.525 131.929 157.578 131.676 157.679C131.424 157.781 131.194 157.93 131 158.117C130.807 158.305 130.654 158.528 130.549 158.773C130.444 159.018 130.39 159.281 130.39 159.547L136.061 159.547V156.964H133.399V157.525Z" fill="#29283C"/>
<path d="M142.31 157.525H143.236C143.788 157.525 144.318 157.738 144.709 158.117C145.099 158.497 145.319 159.011 145.319 159.547L139.648 159.547V156.964H142.31V157.525Z" fill="#29283C"/>
<path d="M137.334 107.999C138.995 107.999 140.343 106.691 140.343 105.079C140.343 103.466 138.995 102.159 137.334 102.159C135.672 102.159 134.325 103.466 134.325 105.079C134.325 106.691 135.672 107.999 137.334 107.999Z" fill="#DFB69F"/>
<path d="M136.639 106.651C136.639 106.651 136.292 110.357 135.829 110.694C135.366 111.031 140.69 110.469 140.69 110.469C140.69 110.469 138.838 107.774 139.185 106.875C139.532 105.977 136.639 106.651 136.639 106.651Z" fill="#DFB69F"/>
<path d="M143.467 110.582C143.467 110.582 137.102 107.999 132.936 110.582C132.936 110.582 131.895 113.165 132.705 114.625C133.515 116.085 134.788 119.566 133.515 121.924C132.242 124.283 133.63 123.272 133.63 123.272C133.63 123.272 132.01 129.561 131.779 134.503C131.547 139.444 132.473 157.188 133.168 157.301C133.862 157.413 136.061 157.638 136.292 157.301C136.524 156.964 138.144 133.492 138.144 133.492C138.144 133.492 138.838 157.525 139.532 157.525C140.227 157.525 142.078 157.525 142.425 156.964C142.773 156.402 145.666 134.727 144.624 130.235C143.583 125.743 142.888 123.497 142.888 123.497C142.888 123.497 144.161 122.711 143.814 122.261C143.467 121.812 141.731 116.983 142.541 116.197C143.351 115.411 143.467 110.582 143.467 110.582Z" fill="#29283C"/>
<path d="M139.243 108.036C141.927 108.036 144.104 105.924 144.104 103.319C144.104 100.714 141.927 98.6019 139.243 98.6019C136.559 98.6019 134.383 100.714 134.383 103.319C134.383 105.924 136.559 108.036 139.243 108.036Z" fill="#29283C"/>
<path d="M142.278 100.957C141.459 100.771 140.746 100.285 140.286 99.6014C139.826 98.9177 139.655 98.0884 139.808 97.2856C139.794 97.3339 139.78 97.3826 139.768 97.432C139.57 98.2522 139.716 99.1151 140.173 99.8311C140.631 100.547 141.362 101.057 142.207 101.25C143.052 101.443 143.942 101.302 144.68 100.859C145.418 100.415 145.944 99.7056 146.143 98.8857C146.155 98.8362 146.166 98.7868 146.175 98.7375C145.944 99.5225 145.41 100.191 144.685 100.604C143.959 101.018 143.097 101.144 142.278 100.957Z" fill="#29283C"/>
<path d="M142.476 101.572C143.79 101.572 144.855 100.539 144.855 99.2638C144.855 97.989 143.79 96.9556 142.476 96.9556C141.163 96.9556 140.098 97.989 140.098 99.2638C140.098 100.539 141.163 101.572 142.476 101.572Z" fill="#29283C"/>
</g>
<defs>
<clipPath id="clip0_23_63">
<rect width="234.507" height="160" fill="white" transform="translate(0.713135)"/>
</clipPath>
</defs>
</svg>
