<svg width="20" height="20" viewBox="0 0 20 20" fill="none" xmlns="http://www.w3.org/2000/svg">
<mask id="mask0_27_680" style="mask-type:luminance" maskUnits="userSpaceOnUse" x="0" y="0" width="20" height="20">
<path d="M20 0H0V20H20V0Z" fill="white"/>
</mask>
<g mask="url(#mask0_27_680)">
<path d="M5.5556 0C2.4872 0 0 2.4872 0 5.5556V14.4444C0 17.5128 2.4872 20 5.5556 20H14.4444C17.5128 20 20 17.5128 20 14.4444V5.5556C20 2.4872 17.5128 0 14.4444 0H5.5556ZM16.6668 2.2224C17.2776 2.2224 17.7776 2.7224 17.7776 3.3332C17.7776 3.9444 17.2776 4.4444 16.6668 4.4444C16.0556 4.4444 15.5556 3.9444 15.5556 3.3332C15.5556 2.7224 16.0556 2.2224 16.6668 2.2224ZM10 4.4444C13.0684 4.4444 15.5556 6.9316 15.5556 10C15.5556 13.0684 13.0684 15.5556 10 15.5556C6.9316 15.5556 4.4444 13.0684 4.4444 10C4.4444 6.9316 6.9316 4.4444 10 4.4444ZM10 6.6668C8.8088 6.6672 7.708 7.3028 7.1128 8.3348C6.5176 9.3668 6.518 10.638 7.114 11.6692C7.71 12.7008 8.8108 13.336 10.0024 13.3356C11.8436 13.3348 13.336 11.8416 13.3356 10C13.3348 8.1584 11.8416 6.666 10 6.6668Z" fill="url(#paint0_linear_27_680)"/>
</g>
<defs>
<linearGradient id="paint0_linear_27_680" x1="18.4375" y1="1.66667" x2="1.875" y2="18.5417" gradientUnits="userSpaceOnUse">
<stop stop-color="#304FFE"/>
<stop offset="0.518079" stop-color="#FF1744"/>
<stop offset="0.983333" stop-color="#FFD54F"/>
</linearGradient>
</defs>
</svg>
