<svg width="385" height="70" viewBox="0 0 385 70" fill="none" xmlns="http://www.w3.org/2000/svg">
<mask id="mask0_70_185" style="mask-type:luminance" maskUnits="userSpaceOnUse" x="0" y="0" width="70" height="70">
<path d="M70 0H0V70H70V0Z" fill="white"/>
</mask>
<g mask="url(#mask0_70_185)">
<path d="M35.0001 35L42.0001 28.14C41.1868 24.9185 41.1868 22.5385 42.0001 21C42.5349 19.9884 43.6899 18.88 45.4651 17.675L45.7801 68.46C52.4766 65.9281 58.1699 61.8215 62.8601 56.14C67.275 50.7918 69.7017 43.7451 70.1401 35C69.6734 30.3956 69.1134 26.9423 68.4601 24.64C67.5578 21.4667 65.6912 17.9667 62.8601 14.14C66.6706 26.9465 66.6706 36.2331 62.8601 42C61.6124 43.8882 59.3724 46.1749 56.1401 48.86V7.14001C54.5534 5.92667 53.2468 5.04001 52.2201 4.48001C51.1934 3.92001 49.3734 3.12667 46.7601 2.10001L35.0001 14.14L23.1001 2.10001C20.9293 3.01449 19.2493 3.80782 18.0601 4.48001C16.629 5.28893 15.2757 6.17559 14.0001 7.14001V48.86C10.6997 46.1866 8.41306 43.8999 7.14009 42C3.28767 36.2504 3.28767 26.9637 7.14009 14.14C4.55784 17.5311 2.69117 21.0311 1.54009 24.64C0.389012 28.2489 -0.0776547 31.7023 0.140092 35C-0.136548 42.4118 2.19679 49.4585 7.14009 56.14C10.9551 61.2965 16.8001 65.4031 24.6751 68.46V17.675C26.3772 18.898 27.4855 20.0063 28.0001 21C28.7991 22.5433 28.7991 24.9233 28.0001 28.14L35.0001 35Z" fill="url(#paint0_linear_70_185)"/>
</g>
<path d="M137.696 19.032V54H130.544V33.888C130.544 33.424 130.552 32.92 130.568 32.376C130.6 31.832 130.648 31.28 130.712 30.72L121.424 48.696C121.136 49.256 120.744 49.68 120.248 49.968C119.768 50.256 119.216 50.4 118.592 50.4H117.488C116.864 50.4 116.304 50.256 115.808 49.968C115.328 49.68 114.944 49.256 114.656 48.696L105.368 30.672C105.416 31.248 105.456 31.816 105.488 32.376C105.52 32.92 105.536 33.424 105.536 33.888V54H98.384V19.032H104.576C104.928 19.032 105.232 19.04 105.488 19.056C105.76 19.072 106 19.12 106.208 19.2C106.416 19.28 106.6 19.408 106.76 19.584C106.936 19.744 107.104 19.976 107.264 20.28L116.264 38.016C116.584 38.624 116.888 39.256 117.176 39.912C117.48 40.568 117.768 41.24 118.04 41.928C118.312 41.224 118.592 40.536 118.88 39.864C119.184 39.192 119.504 38.552 119.84 37.944L128.816 20.28C128.976 19.976 129.136 19.744 129.296 19.584C129.472 19.408 129.664 19.28 129.872 19.2C130.08 19.12 130.312 19.072 130.568 19.056C130.84 19.04 131.152 19.032 131.504 19.032H137.696ZM162.942 40.632L159.702 31.056C159.462 30.448 159.206 29.736 158.934 28.92C158.662 28.088 158.39 27.192 158.118 26.232C157.878 27.208 157.622 28.112 157.35 28.944C157.078 29.776 156.822 30.496 156.582 31.104L153.366 40.632H162.942ZM175.83 54H169.542C168.838 54 168.27 53.84 167.838 53.52C167.406 53.184 167.078 52.76 166.854 52.248L164.79 46.152H151.494L149.43 52.248C149.254 52.696 148.934 53.104 148.47 53.472C148.022 53.824 147.462 54 146.79 54H140.454L153.99 19.032H162.294L175.83 54ZM189.963 35.472C191.067 35.472 192.003 35.336 192.771 35.064C193.555 34.776 194.195 34.384 194.691 33.888C195.187 33.392 195.547 32.816 195.771 32.16C195.995 31.488 196.107 30.768 196.107 30C196.107 28.464 195.603 27.264 194.595 26.4C193.603 25.536 192.059 25.104 189.963 25.104H186.699V35.472H189.963ZM207.195 54H199.851C198.491 54 197.515 53.488 196.923 52.464L191.115 42.312C190.843 41.88 190.539 41.568 190.203 41.376C189.867 41.168 189.387 41.064 188.763 41.064H186.699V54H178.587V19.032H189.963C192.491 19.032 194.643 19.296 196.419 19.824C198.211 20.336 199.667 21.056 200.787 21.984C201.923 22.912 202.747 24.008 203.259 25.272C203.771 26.536 204.027 27.912 204.027 29.4C204.027 30.536 203.875 31.608 203.571 32.616C203.267 33.624 202.819 34.56 202.227 35.424C201.635 36.272 200.899 37.032 200.019 37.704C199.155 38.376 198.155 38.928 197.019 39.36C197.547 39.632 198.043 39.976 198.507 40.392C198.971 40.792 199.387 41.272 199.755 41.832L207.195 54ZM218.246 33.192H219.542C220.742 33.192 221.606 32.816 222.134 32.064L230.006 20.64C230.47 20.032 230.966 19.616 231.494 19.392C232.038 19.152 232.71 19.032 233.51 19.032H240.566L230.198 33.168C229.462 34.144 228.67 34.848 227.822 35.28C228.43 35.504 228.982 35.816 229.478 36.216C229.974 36.616 230.438 37.136 230.87 37.776L241.43 54H234.182C233.718 54 233.318 53.968 232.982 53.904C232.662 53.84 232.382 53.744 232.142 53.616C231.902 53.488 231.694 53.336 231.518 53.16C231.342 52.968 231.174 52.752 231.014 52.512L223.094 40.344C222.806 39.896 222.438 39.584 221.99 39.408C221.558 39.216 220.966 39.12 220.214 39.12H218.246V54H210.134V19.032H218.246V33.192ZM252.185 25.272V33.432H263.177V39.432H252.185V47.76H266.537V54H244.025V19.032H266.537V25.272H252.185ZM296.668 25.464H286.828V54H278.716V25.464H268.876V19.032H296.668V25.464ZM308.95 25.272V33.432H319.942V39.432H308.95V47.76H323.302V54H300.79V19.032H323.302V25.272H308.95ZM336.466 25.272V33.432H347.458V39.432H336.466V47.76H350.818V54H328.306V19.032H350.818V25.272H336.466ZM367.198 35.472C368.302 35.472 369.238 35.336 370.006 35.064C370.79 34.776 371.43 34.384 371.926 33.888C372.422 33.392 372.782 32.816 373.006 32.16C373.23 31.488 373.342 30.768 373.342 30C373.342 28.464 372.838 27.264 371.83 26.4C370.838 25.536 369.294 25.104 367.198 25.104H363.934V35.472H367.198ZM384.43 54H377.086C375.726 54 374.75 53.488 374.158 52.464L368.35 42.312C368.078 41.88 367.774 41.568 367.438 41.376C367.102 41.168 366.622 41.064 365.997 41.064H363.934V54H355.822V19.032H367.198C369.726 19.032 371.878 19.296 373.654 19.824C375.446 20.336 376.902 21.056 378.022 21.984C379.158 22.912 379.982 24.008 380.494 25.272C381.006 26.536 381.262 27.912 381.262 29.4C381.262 30.536 381.11 31.608 380.806 32.616C380.502 33.624 380.054 34.56 379.462 35.424C378.87 36.272 378.134 37.032 377.254 37.704C376.39 38.376 375.39 38.928 374.254 39.36C374.782 39.632 375.278 39.976 375.742 40.392C376.206 40.792 376.622 41.272 376.99 41.832L384.43 54Z" fill="#67C1D6"/>
<defs>
<linearGradient id="paint0_linear_70_185" x1="35.0934" y1="14.0933" x2="35.0097" y2="69.9067" gradientUnits="userSpaceOnUse">
<stop offset="0.0291667" stop-color="#7CD2E6"/>
<stop offset="0.991667" stop-color="#2867A2"/>
</linearGradient>
</defs>
</svg>
