<svg width="20" height="20" viewBox="0 0 20 20" fill="none" xmlns="http://www.w3.org/2000/svg">
<mask id="mask0_27_674" style="mask-type:luminance" maskUnits="userSpaceOnUse" x="0" y="0" width="20" height="20">
<path d="M20 0H0V20H20V0Z" fill="white"/>
</mask>
<g mask="url(#mask0_27_674)">
<path d="M20 3.85079C19.25 4.18079 18.4552 4.39799 17.6416 4.49519C18.4964 3.98719 19.138 3.18599 19.4468 2.24039C18.6408 2.71559 17.7596 3.04959 16.8408 3.22799C16.0632 2.40559 14.98 1.94119 13.848 1.94559C11.5828 1.94559 9.7448 3.76599 9.7448 6.01159C9.7448 6.32839 9.7816 6.63919 9.8508 6.93839C6.5588 6.77799 3.488 5.23399 1.3952 2.68759C0.3072 4.54839 0.8648 6.93479 2.6648 8.12079C2.0136 8.09959 1.3764 7.92559 0.8048 7.61319V7.66079C0.8048 9.63279 2.2196 11.276 4.0944 11.6516C3.7432 11.7472 3.3804 11.796 3.0164 11.7964C2.7512 11.7964 2.4928 11.7664 2.244 11.7208C2.7648 13.3328 4.2788 14.5112 6.076 14.546C4.3508 15.8848 2.168 16.4896 0 16.2292C1.8812 17.4224 4.0632 18.0556 6.2908 18.0544C13.8376 18.0544 17.9668 11.8576 17.9668 6.48039C17.9668 6.30479 17.9604 6.12879 17.9512 5.95759C18.7568 5.38599 19.4508 4.67199 20 3.85079Z" fill="#03A9F4"/>
</g>
</svg>
