<svg width="20" height="20" viewBox="0 0 20 20" fill="none" xmlns="http://www.w3.org/2000/svg">
<mask id="mask0_27_686" style="mask-type:luminance" maskUnits="userSpaceOnUse" x="0" y="0" width="20" height="20">
<path d="M20 0H0V20H20V0Z" fill="white"/>
</mask>
<g mask="url(#mask0_27_686)">
<path fill-rule="evenodd" clip-rule="evenodd" d="M19.4468 14.8832C19.2496 15.9164 18.4168 16.7096 17.3748 16.8564C15.7468 17.1032 13.0336 17.4 9.97483 17.4C7.49843 17.3936 5.02563 17.212 2.57483 16.8564C1.53323 16.7096 0.700032 15.9164 0.502832 14.8832C0.305232 13.7504 0.108032 12.072 0.108032 9.99998C0.108032 7.92798 0.304432 6.24958 0.502832 5.11678C0.700032 4.08358 1.53323 3.29038 2.57483 3.14358C4.20283 2.89678 6.91603 2.59998 9.97483 2.59998C13.0336 2.59998 15.6984 2.89678 17.3748 3.14358C18.4168 3.29038 19.2496 4.08358 19.4468 5.11678C19.6452 6.24958 19.892 7.92838 19.892 9.99998C19.8416 12.072 19.6456 13.7504 19.4468 14.8832ZM8.00163 13.4532V6.54678L13.9216 9.99998L8.00163 13.4532Z" fill="#FF3D00"/>
</g>
</svg>
