<svg width="1440" height="1024" viewBox="0 0 1440 1024" fill="none" xmlns="http://www.w3.org/2000/svg">
<path d="M1440.5 0.500001L1050.38 0.5C1050.38 0.5 932.113 69.0178 881.362 182.521C794.19 377.479 901.906 531.868 751.894 637.216C625.706 725.833 382.473 543.406 156.207 687.546C-5.02774 790.258 -0.499985 1023 -0.499985 1023L1440.5 1023L1440.5 0.500001Z" fill="#67C1D6" fill-opacity="0.5"/>
<path d="M1440 0H1011.2C1011.2 0 910.12 59.1429 865 175C787.5 374 902.662 522.918 758 635.5C636.313 730.202 384.421 559.931 165.5 715C9.5 825.5 0 1024 0 1024H1440V0Z" fill="#67C1D6" fill-opacity="0.5"/>
<path d="M1440.5 0.499973L969.251 0.499996C969.251 0.499996 886.324 49.8728 847.287 167.919C780.236 370.678 902.982 513.408 764.368 633.358C647.768 734.258 387.366 577.31 176.801 743.548C26.7559 862.007 -0.500024 1023 -0.500024 1023L1440.5 1023L1440.5 0.499973Z" fill="#67C1D6" fill-opacity="0.5"/>
</svg>
