<svg width="20" height="23" viewBox="0 0 20 23" fill="none" xmlns="http://www.w3.org/2000/svg">
<path d="M17.7644 10.1176H16.7544V7.08747C16.7544 3.56071 13.8841 0.690472 10.3574 0.690472C6.83058 0.690472 3.96035 3.56071 3.96035 7.08747V10.1176H2.9503C1.83503 10.1176 0.930191 11.0225 0.930191 12.1377V20.2182C0.930191 21.3334 1.83503 22.2383 2.9503 22.2383H17.7644C18.8797 22.2383 19.7845 21.3334 19.7845 20.2182V12.1377C19.7845 11.0225 18.8797 10.1176 17.7644 10.1176ZM13.3875 10.1176H7.32719V7.08747C7.32719 5.41668 8.68656 4.05732 10.3574 4.05732C12.0281 4.05732 13.3875 5.41668 13.3875 7.08747V10.1176Z" fill="#7E7E7E"/>
</svg>
