<svg width="22" height="21" viewBox="0 0 22 21" fill="none" xmlns="http://www.w3.org/2000/svg">
<g clip-path="url(#clip0_115_41)">
<path d="M10.9803 11.9549C14.3261 11.9549 17.0406 9.41005 17.0406 6.27336C17.0406 3.13667 14.3261 0.591812 10.9803 0.591812C7.63447 0.591812 4.91995 3.13667 4.91995 6.27336C4.91995 9.41005 7.63447 11.9549 10.9803 11.9549ZM16.3672 13.2175H14.0483C13.114 13.6199 12.0745 13.8488 10.9803 13.8488C9.88604 13.8488 8.85074 13.6199 7.91223 13.2175H5.59332C2.61787 13.2175 0.206367 15.4783 0.206367 18.2677V18.899C0.206367 19.9446 1.11121 20.7929 2.22647 20.7929H19.7341C20.8493 20.7929 21.7542 19.9446 21.7542 18.899V18.2677C21.7542 15.4783 19.3427 13.2175 16.3672 13.2175Z" fill="#7E7E7E"/>
</g>
<defs>
<clipPath id="clip0_115_41">
<rect width="21.5478" height="20.2011" fill="white" transform="translate(0.206367 0.591812)"/>
</clipPath>
</defs>
</svg>
